<?xml version="1.0" encoding="UTF-8"?>
<svg id="Layer_1" data-name="Layer 1" xmlns="http://www.w3.org/2000/svg" viewBox="0 0 746.37 222.67">
  <defs>
    <style>
      .cls-1 {
        fill: none;
        stroke: #231916;
        stroke-miterlimit: 10;
        stroke-width: 6px;
      }
    </style>
  </defs>
  <g>
    <path class="cls-1" d="M170.38,2.87S78.05,31.54,1.86,91.82c0,0,103.04-53.73,202.7-15.49,0,0-47.91,40.73-32.48,111.98,0,0,33.21-61.32,117.16-67.26,0,0,27.71,77.19,84.72,98.81"/>
    <path class="cls-1" d="M575.99,2.87s92.32,28.67,168.51,88.95c0,0-103.04-53.73-202.7-15.49,0,0,47.91,40.73,32.48,111.98,0,0-33.21-61.32-117.16-67.26,0,0-27.89,77.19-84.9,98.81"/>
  </g>
  <ellipse class="cls-1" cx="368.14" cy="36.55" rx="35.3" ry="16.84"/>
</svg>