<?xml version="1.0" encoding="UTF-8"?>
<svg id="Layer_1" data-name="Layer 1" xmlns="http://www.w3.org/2000/svg" viewBox="0 0 610.38 262.43">
  <defs>
    <style>
      .cls-1, .cls-2, .cls-3 {
        stroke: #231916;
        stroke-miterlimit: 10;
        stroke-width: 6px;
      }

      .cls-1, .cls-4 {
        fill: #231916;
      }

      .cls-2 {
        stroke-linecap: round;
      }

      .cls-2, .cls-3 {
        fill: none;
      }
    </style>
  </defs>
  <g>
    <ellipse class="cls-4" cx="351.02" cy="197.12" rx="23.19" ry="35.8"/>
    <g>
      <path class="cls-2" d="M3,259.43s15.59-62.8,198.68-76.31"/>
      <path class="cls-2" d="M607.38,259.43s-15.59-62.8-198.68-76.31"/>
      <path class="cls-2" d="M337.59,133.62c-12.76,0-23.99,9.76-30.55,24.54-6.56-14.79-17.79-24.54-30.55-24.54-20.23,0-36.63,24.5-36.63,54.72s16.4,54.72,36.63,54.72c12.76,0,23.99-9.76,30.55-24.54,6.56,14.79,17.79,24.54,30.55,24.54,20.23,0,36.63-24.5,36.63-54.72s-16.4-54.72-36.63-54.72Z"/>
      <ellipse class="cls-4" cx="288.78" cy="197.12" rx="23.19" ry="35.8"/>
      <path class="cls-3" d="M322.96,119.21s40.01-22.2,38.39-45.64"/>
      <path class="cls-3" d="M296.76,118s-39.44,5.38-62.34-22.51"/>
    </g>
  </g>
  <path class="cls-4" d="M370.33,160.51l-162.24-.68c-2.24,0-3.19,4.19-1.41,6.26,5.77,6.71,8.42,15.32,29.69,15.53,28.55.28,119.67.03,134.34-.19,1.3-.02,2.33-1.61,2.29-3.56l-.28-13.9c-.04-1.92-1.1-3.46-2.39-3.46Z"/>
  <path class="cls-3" d="M95.43,76.34s-106.75,60.23,40.28,115.9"/>
  <path class="cls-3" d="M518.38,199.7s55.57-43.52,22.56-147.24"/>
  <path class="cls-1" d="M119.09,47.05c-1.14-1.54-1.53-3.51-.96-5.34,3-9.7,5.58-21.47,1.08-25.06-4.5-3.59-9.21,7.91-12.68,19.52-.39,1.3-1.64,2.17-2.99,2.04-.02,0-.04,0-.07,0-2.26-.22-3.93-2.19-3.69-4.45,1.14-10.67,2.25-27.42-3.97-30.43-5.46-2.64-7.44,11.11-8.16,23.79-.47,8.22-2.79,16.17-6.32,23.61-.32.68-.61,1.38-.87,2.11-3.76,10.56,1.16,22.5,11.27,27.33,11.62,5.56,25.34.12,30.1-11.64,3-7.41,1.69-15.49-2.74-21.47Z"/>
  <path class="cls-1" d="M519.23,49.41c.04.13.08.27.12.4.61,2.1,9.75,17.64,27.97,6.71,23.89-14.32,14.52-29.93,14.52-29.93,0,0-7.77-15.37-16.73-6.46-6.23,6.2-5.03,10.06-21.97,13.11-8.08,1.45-4.47,14.3-3.9,16.16Z"/>
</svg>