<?xml version="1.0" encoding="UTF-8"?>
<svg id="Layer_1" xmlns="http://www.w3.org/2000/svg" version="1.1" viewBox="0 0 768 300">
  <!-- Generator: Adobe Illustrator 29.1.0, SVG Export Plug-In . SVG Version: 2.1.0 Build 142)  -->
  <defs>
    <style>
      .st0 {
        fill: #edf0c6;
      }

      .st1 {
        fill: #231916;
      }
    </style>
  </defs>
  <rect class="st0" x="164.18" y="91.86" width="267.19" height="55.89"/>
  <rect class="st0" x="164.18" y="144.91" width="438.86" height="55.89"/>
  <g>
    <path class="st1" d="M186.99,105.15h-5.4v-2.17h12.29v2.17h-5.44l6.12,8.89-1.87,1.32-4.98-7.48-4.98,7.48-1.87-1.32,6.12-8.89ZM198.55,100.43h2.25v26.58h-2.25v-26.58Z"/>
    <path class="st1" d="M212.59,101.83l6.68,13.27-2.08.94-4.59-9.44-4.59,9.44-2.08-.94,6.68-13.27ZM218.71,126.67h4.38v-26.24h2.25v26.24h4.21v13.48h-2.25v-11.31h-8.59v-2.17Z"/>
    <path class="st1" d="M240.86,102.6c3.44,0,6.21,2.81,6.21,6.25s-2.76,6.25-6.21,6.25-6.21-2.81-6.21-6.25,2.76-6.25,6.21-6.25ZM240.91,126.79c3.44,0,6.21,2.81,6.21,6.25s-2.76,6.25-6.21,6.25-6.21-2.81-6.21-6.25,2.76-6.25,6.21-6.25ZM235.12,119.18h11.48v2.17h-2.08v5.44h-2.17v-5.44h-2.98v5.44h-2.17v-5.44h-2.08v-2.17ZM240.86,112.85c2.17,0,3.95-1.83,3.95-4s-1.79-4-3.95-4-3.96,1.83-3.96,4,1.79,4,3.96,4ZM240.91,137.04c2.17,0,3.95-1.83,3.95-4s-1.79-4-3.95-4-3.96,1.83-3.96,4,1.79,4,3.96,4Z"/>
    <path class="st1" d="M253.07,105.57h13.14v2.08h-2.34c.72.94,1.15,2.08,1.15,3.32,0,2.98-2.38,5.36-5.36,5.36s-5.36-2.38-5.36-5.36c0-1.23.38-2.38,1.11-3.32h-2.34v-2.08ZM263.57,103.32h-7.78v-2.08h7.78v2.08ZM259.66,114.21c1.79,0,3.23-1.45,3.23-3.23s-1.45-3.27-3.23-3.27-3.19,1.49-3.19,3.27,1.4,3.23,3.19,3.23ZM266,126.67h2.21v4.08h6.17v-4.08h2.25v13.27h-10.63v-13.27ZM268.21,132.83v4.93h6.17v-4.93h-6.17ZM277.39,110.85h-4.98v16.16h-2.25v-26.58h2.25v8.25h4.98v2.17Z"/>
    <path class="st1" d="M281.86,102.6h10.63v13.23h-10.63v-13.23ZM284.11,104.77v8.89h6.17v-8.89h-6.17ZM298.4,100.43h2.25v26.58h-2.25v-26.58Z"/>
    <path class="st1" d="M307.03,102.6h10.84v2.17h-8.59v8.89h8.59v2.17h-10.84v-13.23ZM323.36,100.43h2.25v26.58h-2.25v-26.58Z"/>
    <path class="st1" d="M337.35,102.6c3.02,0,5.49,2.13,6.08,4.98h5.4v-7.14h2.25v26.58h-2.25v-17.27h-5.36c-.43,3.02-2.98,5.36-6.12,5.36-3.44,0-6.21-2.81-6.21-6.25s2.76-6.25,6.21-6.25ZM337.35,112.85c2.17,0,3.96-1.83,3.96-4s-1.79-4-3.96-4-3.96,1.83-3.96,4,1.79,4,3.96,4Z"/>
    <path class="st1" d="M357.46,102.6h10.84v2.17h-8.59v8.89h8.59v2.17h-10.84v-13.23ZM371.8,100.43h2.21v8.25h3.7v-8.25h2.21v26.58h-2.21v-16.16h-3.7v16.16h-2.21v-26.58Z"/>
    <path class="st1" d="M385.66,105.57h13.14v2.08h-2.34c.72.94,1.15,2.08,1.15,3.32,0,2.98-2.38,5.36-5.36,5.36s-5.36-2.38-5.36-5.36c0-1.23.38-2.38,1.11-3.32h-2.34v-2.08ZM396.16,103.32h-7.78v-2.08h7.78v2.08ZM392.25,114.21c1.79,0,3.23-1.45,3.23-3.23s-1.45-3.27-3.23-3.27-3.19,1.49-3.19,3.27,1.4,3.23,3.19,3.23ZM398.37,126.67h4.38v-26.24h2.25v8.25h4.98v2.17h-4.98v15.82h4.21v13.48h-2.25v-11.31h-8.59v-2.17Z"/>
    <path class="st1" d="M191.92,161.24h-8.38v3.44h8.51v2.17h-10.76v-7.7h8.42v-3.36h-8.42v-2.17h10.63v7.61ZM193.11,177.7h4.38v-26.24h2.25v8.25h4.98v2.17h-4.98v15.82h4.21v13.48h-2.25v-11.31h-8.59v-2.17Z"/>
    <path class="st1" d="M209.18,153.63h2.25v4.04h6.17v-4.04h2.21v13.23h-10.63v-13.23ZM211.44,159.75v4.93h6.17v-4.93h-6.17ZM221.94,177.7h1.79v-26.24h2.21v8.25h3.7v-8.25h2.21v26.58h-2.21v-16.16h-3.7v16.16h-1.74v10.76h8.8v2.17h-11.06v-13.27Z"/>
    <path class="st1" d="M238.52,173.23v-2.17h11.48v2.17h-11.48ZM238.82,153.63h10.84v2.17h-8.59v8.89h8.59v2.17h-10.84v-13.23Z"/>
    <path class="st1" d="M274.12,152.86l6.68,13.27-2.08.94-4.59-9.44-4.59,9.44-2.08-.94,6.68-13.27ZM268.38,171.57h4.59v-5.23h2.3v5.23h4.59v2.13h-11.48v-2.13Z"/>
    <path class="st1" d="M287.6,153.63h10.63v13.23h-4.17v4.72h4.59v2.13h-11.48v-2.13h4.59v-4.72h-4.17v-13.23ZM289.85,155.8v8.89h6.12v-8.89h-6.12Z"/>
    <path class="st1" d="M309.97,153.63c3.44,0,6.21,2.81,6.21,6.25s-2.76,6.25-6.21,6.25-6.21-2.81-6.21-6.25,2.76-6.25,6.21-6.25ZM309.97,163.88c2.17,0,3.96-1.83,3.96-4s-1.79-4-3.96-4-3.96,1.83-3.96,4,1.79,4,3.96,4ZM316.98,177.7h4.17v-26.24h2.25v26.24h4.21v13.27h-10.63v-13.27ZM319.19,179.87v8.93h6.17v-8.93h-6.17Z"/>
    <path class="st1" d="M342.92,153.63h10.84v2.17h-8.59v8.89h8.59v2.17h-10.84v-13.23ZM366.14,161.88h-4.98v16.16h-2.25v-26.58h2.25v8.25h4.98v2.17Z"/>
    <path class="st1" d="M370.82,153.63h10.8v13.44h-2.21v-4.98h-8.42v-2.17h8.42v-4.12h-8.59v-2.17ZM394.42,161.88h-4.98v16.16h-2.25v-26.58h2.25v8.25h4.98v2.17Z"/>
    <path class="st1" d="M399.95,171.57h4.59v-4.72h-5.23v-2.17h2.21v-8.89h-2.17v-2.17h12.54v2.17h-2.21v8.89h2.25v2.17h-5.1v4.72h4.59v2.13h-11.48v-2.13ZM403.73,155.8v8.89h3.74v-8.89h-3.74Z"/>
    <path class="st1" d="M438.9,164.6v2.47h-2.21v-11.27h-8.59v-2.17h10.8v2.59h6.21v-4.76h2.25v26.58h-2.25v-13.44h-6.21ZM438.9,158.39v4.04h6.21v-4.04h-6.21Z"/>
    <path class="st1" d="M460.8,153.63c3.44,0,6.21,2.81,6.21,6.25s-2.76,6.25-6.21,6.25-6.21-2.81-6.21-6.25,2.76-6.25,6.21-6.25ZM466.11,185.35h-8.38v3.44h8.51v2.17h-10.76v-7.74h8.38v-3.36h-8.38v-2.17h4.17v-5.32h-4.59v-2.17h11.48v2.17h-4.59v5.32h4.17v7.65ZM460.8,163.88c2.17,0,3.95-1.83,3.95-4s-1.79-4-3.95-4-3.96,1.83-3.96,4,1.79,4,3.96,4Z"/>
    <path class="st1" d="M490.14,156.18h-5.4v-2.17h12.29v2.17h-5.44l6.12,8.89-1.87,1.32-4.98-7.48-4.98,7.48-1.87-1.32,6.12-8.89ZM502,177.95v-17.01h-6v-2.17h6v-7.31h2.25v26.49c2.89.51,5.1,3.06,5.1,6.12,0,3.44-2.76,6.25-6.21,6.25s-6.21-2.81-6.21-6.25c0-3.06,2.17-5.61,5.06-6.12ZM503.15,188.07c2.17,0,3.96-1.83,3.96-4s-1.79-4-3.96-4-3.95,1.83-3.95,4,1.79,4,3.95,4Z"/>
    <path class="st1" d="M509.78,153.63h10.8v13.44h-2.21v-11.27h-8.59v-2.17ZM526.5,151.46h2.25v26.58h-2.25v-26.58Z"/>
    <path class="st1" d="M553.24,177.82c3.45,0,6.21,2.81,6.21,6.25s-2.76,6.25-6.21,6.25-6.21-2.81-6.21-6.25,2.76-6.25,6.21-6.25ZM547.46,171.57h4.17v-5.23h2.34v5.23h4.98v2.13h-11.48v-2.13ZM547.67,153.63h10.84v13.44h-2.25v-11.27h-8.59v-2.17ZM553.24,188.07c2.17,0,3.96-1.83,3.96-4s-1.79-4-3.96-4-3.96,1.83-3.96,4,1.79,4,3.96,4Z"/>
    <path class="st1" d="M575.87,164c-1.15,1.32-2.81,2.13-4.68,2.13-3.44,0-6.21-2.81-6.21-6.25s2.76-6.25,6.21-6.25c1.83,0,3.49.81,4.64,2.08v-.04h6.85v-4.21h2.25v26.58h-2.25v-14.03h-6.8ZM571.19,163.88c2.17,0,3.96-1.83,3.96-4s-1.79-4-3.96-4-3.95,1.83-3.95,4,1.79,4,3.95,4ZM577.06,161.83h5.61v-4.04h-5.66c.26.68.38,1.36.38,2.08,0,.68-.13,1.36-.34,1.96ZM578.08,177.7h2.21v11.1h8.8v2.17h-11.01v-13.27Z"/>
  </g>
</svg>